<?xml version="1.0" encoding="utf-8"?>
<!-- Generator: Adobe Illustrator 16.0.0, SVG Export Plug-In . SVG Version: 6.00 Build 0)  -->
<!DOCTYPE svg PUBLIC "-//W3C//DTD SVG 1.1//EN" "http://www.w3.org/Graphics/SVG/1.1/DTD/svg11.dtd">
<svg version="1.1" id="Layer_1" xmlns="http://www.w3.org/2000/svg" xmlns:xlink="http://www.w3.org/1999/xlink" x="0px" y="0px"
	 width="366.829px" height="367px" viewBox="0 0 366.829 367" enable-background="new 0 0 366.829 367" xml:space="preserve">
<circle fill="#F0B91C" cx="183.5" cy="183.5" r="183.5"/>
<g>
	<circle fill="#FFFFFF" cx="176.892" cy="149.307" r="7.393"/>
	<path fill="#FFFFFF" d="M168.167,228.276c0,2.286,1.865,4.129,4.129,4.129c2.286,0,4.151-1.865,4.151-4.129v-34.723h1.843v34.723
		c0,2.286,1.865,4.129,4.129,4.129c2.264,0,4.129-1.865,4.129-4.129l0.022-59.854h1.798v22.068c0,4.44,5.772,4.44,5.772,0v-22.534
		c0-4.884-2.886-9.702-8.614-9.702h-16.54c-5.217,0-8.503,4.263-8.503,9.569v22.667c0,4.418,5.816,4.418,5.816,0V168.4h1.865
		V228.276L168.167,228.276z"/>
</g>
<g>
	<circle fill="#FFFFFF" cx="214.233" cy="211.248" r="6.771"/>
	<path fill="#FFFFFF" d="M206.241,283.646c0,2.087,1.709,3.797,3.796,3.797s3.796-1.709,3.796-3.797v-31.858h1.688v31.836
		c0,2.087,1.709,3.796,3.797,3.796c2.086,0,3.796-1.709,3.796-3.796l0.022-54.881h1.665v20.225c0,4.085,5.306,4.085,5.306,0v-20.669
		c0-4.485-2.642-8.88-7.903-8.88h-15.186c-4.795,0-7.792,3.907-7.792,8.792v20.78c0,4.041,5.328,4.041,5.328,0v-20.225h1.709
		L206.241,283.646z"/>
</g>
<g>
	<circle fill="#FFFFFF" cx="139.194" cy="211.248" r="6.771"/>
	<path fill="#FFFFFF" d="M131.18,283.646c0,2.087,1.71,3.797,3.796,3.797c2.087,0,3.797-1.709,3.797-3.797v-31.858h1.687v31.836
		c0,2.087,1.709,3.796,3.796,3.796c2.087,0,3.796-1.709,3.796-3.796l0.022-54.881h1.665v20.225c0,4.085,5.306,4.085,5.306,0v-20.669
		c0-4.485-2.642-8.88-7.903-8.88h-15.186c-4.795,0-7.792,3.907-7.792,8.792v20.78c0,4.041,5.328,4.041,5.328,0v-20.225h1.709
		L131.18,283.646z"/>
</g>
<g>
	<circle fill="#FFFFFF" cx="102.118" cy="211.248" r="6.771"/>
	<path fill="#FFFFFF" d="M94.125,283.646c0,2.087,1.71,3.797,3.797,3.797s3.796-1.709,3.796-3.797v-31.858h1.688v31.836
		c0,2.087,1.71,3.796,3.796,3.796c2.087,0,3.797-1.709,3.797-3.796l0.022-54.881h1.665v20.225c0,4.085,5.306,4.085,5.306,0v-20.669
		c0-4.485-2.642-8.88-7.903-8.88H94.882c-4.796,0-7.793,3.907-7.793,8.792v20.78c0,4.041,5.328,4.041,5.328,0v-20.225h1.71v54.881
		H94.125z"/>
</g>
<g>
	<circle fill="#FFFFFF" cx="251.975" cy="211.248" r="6.771"/>
	<path fill="#FFFFFF" d="M243.982,283.646c0,2.087,1.71,3.797,3.796,3.797c2.087,0,3.797-1.709,3.797-3.797v-31.858h1.687v31.836
		c0,2.087,1.71,3.796,3.797,3.796s3.796-1.709,3.796-3.796l0.022-54.881h1.665v20.225c0,4.085,5.306,4.085,5.306,0v-20.669
		c0-4.485-2.642-8.88-7.903-8.88h-15.186c-4.796,0-7.792,3.907-7.792,8.792v20.78c0,4.041,5.328,4.041,5.328,0v-20.225h1.71
		L243.982,283.646z"/>
</g>
<g>
	<path fill="#FFFFFF" d="M271.734,76.266H251.82c-1.221,0-2.198,0.999-2.198,2.198v3.664h-7.948c-1.222,0-2.199,0.999-2.199,2.198
		v36.654c-0.022,1.221,1,2.198,2.199,2.198h7.948v3.397c0,1.221,0.999,2.198,2.198,2.198h19.893c1.221,0,2.198-1,2.198-2.198v-48.11
		C273.954,77.243,272.955,76.266,271.734,76.266z"/>
	<path fill="#FFFFFF" d="M142.568,75.867c-2.242-0.733-4.684,0.488-5.416,2.73l-0.133,0.422c-0.733,2.242,0.488,4.684,2.73,5.417
		l18.405,6.061l-39.252-0.044c-2.774,0-5.062,2.264-5.062,5.062v0.533c0,2.775,2.265,5.062,5.062,5.062l25.31,0.022l-12.299,6.794
		c-0.022,0-0.022,0.022-0.044,0.022c-0.4,0.222-0.755,0.511-1.088,0.822l-14.364,14.342c-0.022,0.022-0.044,0.044-0.066,0.067
		c-1.91,1.976-1.865,5.128,0.066,7.06c0.022,0.022,0.245,0.222,0.245,0.222c0.955,0.821,2.131,1.243,3.33,1.243
		c1.11,0,2.22-0.377,3.153-1.11c0.022,0,0.022-0.022,0.044-0.022l14.009-11.412l16.429-4.662v14.076
		c0,0.865,0.222,1.731,0.667,2.486c0,0.022,0,0.022,0.022,0.044l7.259,12.566c1.377,2.397,4.418,3.219,6.816,1.887
		c0,0,0.022,0,0.022-0.022l0.444-0.244h0.022c2.264-1.31,3.174-4.107,2.086-6.483l0,0l-5.151-11.123V116.56
		c0-2.153,1.355-4.063,3.375-4.773c0.022,0,0.022,0,0.044-0.022l2.553-0.866h0.022c1.621-0.533,3.397-0.044,4.796,0.71
		c0,0,12.432,6.815,12.455,6.838c2.064,1.266,2.354,4.107,1.243,6.239c0,0.022-0.022,0.022-0.022,0.044l-7.593,13.254
		c-1.221,2.265-0.177,5.884,1.976,7.327l0.533,0.333c2.109,1.398,5.75,1.087,7.415-0.799c0.022-0.022,25.242-29.572,25.242-29.572
		h17.495V87.433h-57.612L142.568,75.867z"/>
</g>
</svg>
