<?xml version="1.0" encoding="utf-8"?>
<!-- Generator: Adobe Illustrator 16.0.0, SVG Export Plug-In . SVG Version: 6.00 Build 0)  -->
<!DOCTYPE svg PUBLIC "-//W3C//DTD SVG 1.1//EN" "http://www.w3.org/Graphics/SVG/1.1/DTD/svg11.dtd">
<svg version="1.1" id="Layer_1" xmlns="http://www.w3.org/2000/svg" xmlns:xlink="http://www.w3.org/1999/xlink" x="0px" y="0px"
	 width="366.829px" height="367px" viewBox="0 0 366.829 367" enable-background="new 0 0 366.829 367" xml:space="preserve">
<circle fill="#F0B91C" cx="183.5" cy="183.5" r="183.5"/>
<path fill="#FFFFFF" d="M288.766,283.177c2.501,0,5.003-1.112,6.948-3.058c3.893-3.892,3.893-10.285,0-14.177l0,0l-41.695-41.974
	l-3.613-3.614l-1.112-1.112l0,0l-1.112-1.112l-2.78,2.78l-6.115-6.116c24.184-28.353,22.793-71.161-4.17-97.846
	c-14.176-14.177-32.522-21.126-51.146-21.126s-36.97,6.949-51.146,21.126c-28.354,28.353-28.354,73.94,0,102.293
	c14.176,14.176,32.522,21.126,51.146,21.126c16.678,0,33.356-5.837,46.699-17.234l6.116,6.115l-2.78,2.78l0,0l0,0l2.223,2.224
	l3.614,3.614l41.974,41.973C283.762,282.065,286.263,283.177,288.766,283.177z M226.5,210.904
	c-11.675,11.675-27.241,17.79-42.53,17.79s-30.855-5.837-42.529-17.79c-23.628-23.628-23.628-61.71,0-85.337
	c11.674-11.675,27.241-17.79,42.529-17.79s30.854,5.837,42.53,17.79C250.127,149.194,250.127,187.276,226.5,210.904z
	 M220.94,182.829c-2.502,8.895-4.726,11.396-6.671,11.396c-0.556,0-0.834-0.278-1.39-0.556c-1.111,5.837-3.057,12.508-7.227,18.068
	c0.277,1.112,0.277,2.224,0.556,3.614c-6.949,3.335-14.733,5.003-22.516,5.003c-8.339,0-16.4-1.946-23.627-5.56
	c0.278-0.834,0.278-1.945,0.556-2.78c-4.726-6.115-6.949-13.342-7.783-19.735c-1.668-0.278-3.892-2.502-6.394-11.397
	c-3.057-11.119-0.277-13.343,2.78-13.343c0.278,0,0.278,0,0.556,0c-2.224-6.394-2.224-12.509-0.834-18.068
	c1.668-6.672,5.003-11.953,9.173-16.123c2.501-2.78,5.281-5.003,8.339-6.949c2.501-1.668,5.281-3.336,8.339-4.17l0,0l0,0
	c2.224-0.834,4.726-1.39,7.505-1.39c1.112,0,2.223-0.278,3.335-0.278c6.671,0,11.675,1.946,15.566,4.169
	c6.671,3.614,9.173,8.617,9.173,8.617s16.679,1.112,9.451,36.415l0,0C222.052,170.32,223.442,173.378,220.94,182.829z
	 M248.738,258.715h-138.43c0-0.834,0-1.668,0-2.78c0-8.062,1.946-20.292,13.898-23.35c3.058-0.834,5.838-1.668,8.618-2.502
	c14.454,11.953,32.244,18.346,51.146,18.346c15.289,0,30.021-4.447,42.808-12.23c0.278,0.278,0.278,0.556,0.556,0.834
	c0.278,0.278,0.556,0.556,0.833,0.834l2.224,2.223l3.614,3.614L248.738,258.715z M300.162,258.715l-40.306-40.306l-3.613-3.614
	l-1.112-1.111l0,0l-1.112-1.112c-0.555-0.556-1.112-1.112-1.667-1.39c8.617-13.62,12.787-29.743,12.231-45.865
	c-0.278-7.505-1.668-14.733-3.892-21.404c9.729-0.834,14.454,5.003,14.454,5.003c16.956-1.668,21.683,16.956,19.736,38.36
	c-2.224,21.126,9.451,24.461,9.451,24.461c-8.062,8.062-24.739,7.783-24.739,7.783v3.614v0.278c0,0.278,0,0.556,0.277,0.834
	c0,0.557,1.391,3.614,10.286,7.783c3.057,1.39,6.392,2.78,9.451,3.892c4.447,1.946,8.895,3.614,12.787,6.394
	c2.224,1.39,4.169,3.057,5.281,5.559c0.834,2.224,1.668,4.448,1.945,6.671c0.278,1.39,0.278,3.058,0,4.448
	C312.949,258.715,306.556,258.715,300.162,258.715z M102.247,255.936c0,0.834,0,1.668,0,2.78h-0.278c-18.346,0-36.414,0-54.76,0
	c-0.278-1.39-0.278-3.058,0-4.448c0.277-2.224,1.111-4.448,1.945-6.671c1.112-2.502,3.058-4.17,5.282-5.56
	c3.892-2.78,8.339-4.448,12.787-6.394c3.058-1.39,6.393-2.502,9.451-3.892c8.895-4.17,10.285-7.228,10.285-7.783
	c0-0.278,0-0.556,0.278-0.834c0-0.556,0-1.39,0.278-1.946v-1.668c-19.458,0.278-25.295-8.061-25.295-8.061
	s11.119-0.278,10.563-29.465c-0.556-29.465,12.787-34.19,17.79-36.136c7.228-2.78,12.509-1.946,16.4-0.556
	c-2.224,7.505-3.336,15.289-3.336,23.35c0,18.624,6.394,36.415,18.068,50.591c-2.501,0.278-4.447,0.278-4.447,0.278v3.614v0.278
	c0,0.278,0,0.556,0.278,0.834c0,0.278,0.277,0.834,1.39,1.946C108.084,230.084,101.969,240.925,102.247,255.936z"/>
</svg>
