<?xml version="1.0" encoding="utf-8"?>
<!-- Generator: Adobe Illustrator 16.0.0, SVG Export Plug-In . SVG Version: 6.00 Build 0)  -->
<!DOCTYPE svg PUBLIC "-//W3C//DTD SVG 1.1//EN" "http://www.w3.org/Graphics/SVG/1.1/DTD/svg11.dtd">
<svg version="1.1" id="Layer_1" xmlns="http://www.w3.org/2000/svg" xmlns:xlink="http://www.w3.org/1999/xlink" x="0px" y="0px"
	 width="366.829px" height="367px" viewBox="0 0 366.829 367" enable-background="new 0 0 366.829 367" xml:space="preserve">
<circle fill="#F0B91C" cx="183.5" cy="183.5" r="183.5"/>
<path fill="#FFFFFF" d="M89.012,175.573c-7.785-0.73-15.325-1.46-23.596-1.946c4.865-39.894,23.353-70.788,57.651-91.221
	c35.516-21.164,72.491-21.893,110.439-5.838c-3.406,7.298-6.812,14.352-9.974,21.407C159.799,69.026,93.147,115.245,89.012,175.573z
	 M276.805,167.302c4.136,27.488-1.459,52.543-18.487,74.193c-16.785,21.649-39.165,33.569-66.653,36.488
	c0.73,7.785,1.217,15.325,1.946,22.866c57.409-1.945,118.953-59.597,106.303-137.925
	C292.374,164.626,284.833,165.842,276.805,167.302z M88.768,192.114c-7.297,0.73-14.838,1.216-22.623,1.946
	c1.703,48.165,43.787,102.411,107.033,107.519c0.729-7.784,1.459-15.325,1.946-22.866
	C125.743,270.443,97.039,241.738,88.768,192.114z M258.561,125.949c5.838,7.541,10.46,16.055,14.109,25.299
	c7.298-2.676,14.596-5.352,22.136-8.028c-8.757-23.353-23.109-41.84-43.299-56.435c-4.622,6.325-9,12.649-13.623,19.217
	C245.668,111.84,252.723,118.408,258.561,125.949z M233.749,117.678c0,0,4.622,0.243,2.676,10.217
	c0.729,0.243,0.973,0.973,0.243,3.649c-0.73,2.433-1.46,3.163-1.946,3.163c-0.243,0-0.243,0-0.243,0
	c-0.243,1.216-0.486,2.189-0.973,3.405v3.649c0,0.243,0,0.243,0.243,0.243c1.216,0.486,7.055,3.649,12.649,8.028
	c0.973,0.729,1.459,1.946,1.459,3.405v6.081v22.623c0,3.406-1.216,6.812-3.406,9.244l-4.622,5.352l-4.135,53.03
	c-0.243,1.945-1.703,3.405-3.649,3.405h-11.919c-1.946,0-3.406-1.459-3.649-3.405l-4.135-53.03l-1.946-2.189
	c2.676-3.649,3.892-8.271,3.892-12.893v-27.731v-7.298c0-0.73,0-1.46-0.243-2.189c2.189-1.216,3.892-2.189,4.379-2.433
	c0.243,0,0.243-0.243,0.243-0.243v-3.162c-0.73-1.46-1.216-2.919-1.46-4.379c-0.486,0-1.216-0.73-1.702-3.162
	c-0.973-3.163,0-3.649,0.729-3.649c0,0,0,0,0.243,0c-0.73-1.703-0.73-3.406-0.243-5.108c0.486-1.946,1.46-3.406,2.675-4.379
	c0.73-0.729,1.46-1.459,2.433-1.946c0.729-0.487,1.459-0.973,2.189-1.216l0,0c0.729-0.243,1.459-0.243,2.189-0.487
	c0.243,0,0.73,0,0.973,0c1.946,0,3.162,0.487,4.379,1.216C233.019,116.218,233.749,117.678,233.749,117.678z M229.613,169.978
	l-2.189-18.488c4.379-6.081-0.243-6.325-1.216-6.325l0,0c-0.729,0-5.595,0.244-1.216,6.325l-2.189,18.488l3.405,3.892
	L229.613,169.978z M134.014,141.517v-3.162c-0.729-1.46-1.216-2.919-1.459-4.379c-0.486,0-1.216-0.73-1.703-3.163
	c-0.973-3.162,0-3.649,0.729-3.649c0,0,0,0,0.244,0c-0.73-1.703-0.73-3.405-0.244-5.108c0.487-1.946,1.46-3.406,2.676-4.379
	c0.729-0.73,1.459-1.459,2.432-1.946c0.73-0.487,1.46-0.973,2.189-1.216l0,0c0.73-0.244,1.459-0.244,2.189-0.486
	c0.244,0,0.73,0,0.973,0c1.946,0,3.163,0.486,4.378,1.216c1.946,0.973,2.676,2.433,2.676,2.433s4.622,0.243,2.676,10.217
	c0.73,0.243,0.973,0.973,0.243,3.649c-0.729,2.433-1.459,3.163-1.946,3.163c-0.243,0-0.243,0-0.243,0
	c-0.244,1.216-0.487,2.189-0.973,3.405v3.649c0,0.243,0,0.243,0.243,0.243c0.486,0.243,2.189,1.216,4.379,2.433
	c-0.243,0.729-0.243,1.459-0.243,2.189v7.298v27.731c0,4.622,1.459,9,3.892,12.649l-1.946,2.189l-4.135,53.03
	c-0.243,1.946-1.703,3.406-3.649,3.406h-11.919c-1.946,0-3.405-1.46-3.648-3.406l-4.136-53.03l-4.865-5.352
	c-2.189-2.676-3.406-5.838-3.406-9.243v-22.623v-6.082c0-1.216,0.486-2.432,1.459-3.405c5.595-4.378,11.433-7.541,12.649-8.027
	C133.771,141.76,134.014,141.517,134.014,141.517z M139.852,151.49l-2.189,18.488l3.405,3.892l3.406-3.892l-2.189-18.488
	c4.378-6.081-0.244-6.325-1.217-6.325l0,0l0,0C140.095,144.922,135.473,145.409,139.852,151.49z M190.936,268.253H176.34
	c-2.189,0-4.135-1.703-4.378-4.135l-5.108-64.95l-5.595-6.568c-2.675-3.163-4.135-7.054-4.135-11.19V153.68v-7.297
	c0-1.46,0.73-3.163,1.946-4.136c6.812-5.595,13.866-9.244,15.326-9.973c0.243,0,0.243-0.243,0.243-0.487v-3.649
	c-0.973-1.703-1.459-3.649-1.703-5.352c-0.486,0-1.459-0.973-2.189-3.892c-1.216-4.135,0-4.622,1.217-4.622
	c0,0-2.919-9.486,4.135-13.622c0,0-1.216-0.973-1.216-2.433c0,0,6.568,0.729,9.73,0c3.163-0.729,6.568,1.946,7.298,4.378
	c0,0,6.811-0.486,3.892,11.676c0,0,0,0.243-0.243,0.73h0.243c0.73,0.243,1.216,1.216,0.486,4.379
	c-1.216,3.892-2.189,4.135-2.676,3.649c-0.243,1.459-0.729,2.919-1.216,4.135c0,1.946,0,3.649,0,4.379c0,0.243,0,0.243,0.243,0.487
	c1.46,0.729,8.758,4.378,15.325,9.973c1.217,0.973,1.946,2.433,1.946,4.135v7.298v27.488c0,4.136-1.459,8.271-4.135,11.433
	l-5.595,6.568l-5.108,64.95C195.071,266.307,193.125,268.253,190.936,268.253z M187.773,167.059l-2.676-22.623
	c5.352-7.541-0.487-7.784-1.459-7.784l0,0l0,0c-0.973,0-6.812,0.486-1.46,7.784l-2.675,22.623l4.135,4.622L187.773,167.059z"/>
</svg>
