<?xml version="1.0" encoding="utf-8"?>
<!-- Generator: Adobe Illustrator 16.0.0, SVG Export Plug-In . SVG Version: 6.00 Build 0)  -->
<!DOCTYPE svg PUBLIC "-//W3C//DTD SVG 1.1//EN" "http://www.w3.org/Graphics/SVG/1.1/DTD/svg11.dtd">
<svg version="1.1" id="Layer_1" xmlns="http://www.w3.org/2000/svg" xmlns:xlink="http://www.w3.org/1999/xlink" x="0px" y="0px"
	 width="366.829px" height="367px" viewBox="0 0 366.829 367" enable-background="new 0 0 366.829 367" xml:space="preserve">
<circle fill="#F7922C" cx="183.5" cy="183.5" r="183.5"/>
<g>
	<ellipse fill="#FFFFFF" cx="104.711" cy="129.783" rx="5.408" ry="5.402"/>
	<ellipse fill="#FFFFFF" cx="119.048" cy="129.783" rx="5.408" ry="5.402"/>
	<ellipse fill="#FFFFFF" cx="133.386" cy="129.783" rx="5.408" ry="5.402"/>
	<polygon fill="#FFFFFF" points="264.141,121.288 159.582,121.288 148.175,138.752 264.141,138.752 	"/>
	<path fill="#FFFFFF" d="M276.886,98.727H86.559c-5.415,0-9.845,4.43-9.845,9.845v149.856c0,5.415,4.43,9.845,9.845,9.845h190.328
		c5.415,0,9.845-4.43,9.845-9.845V108.572C286.731,103.157,282.301,98.727,276.886,98.727z M273.605,111.853v139.704l-9.083-6.898
		H238.42l13.759,10.488h-11.364l-13.809-10.491h-90.573l-13.808,10.488h-11.365l13.76-10.488H98.923l-9.083,6.897V111.853H273.605z"
		/>
	<polygon fill="#FFFFFF" points="119.121,196.417 164.53,216.166 164.53,203.378 132.857,190.816 164.53,178.707 164.53,165.831 
		119.121,185.483 	"/>
	<polygon fill="#FFFFFF" points="168.734,224.839 178.086,224.839 194.667,156.34 185.135,156.34 	"/>
	<polygon fill="#FFFFFF" points="198.871,178.619 230.587,190.954 198.871,203.424 198.871,216.212 244.323,196.417 
		244.323,185.579 198.871,165.922 	"/>
</g>
</svg>
