<?xml version="1.0" encoding="utf-8"?>
<!-- Generator: Adobe Illustrator 16.0.0, SVG Export Plug-In . SVG Version: 6.00 Build 0)  -->
<!DOCTYPE svg PUBLIC "-//W3C//DTD SVG 1.1//EN" "http://www.w3.org/Graphics/SVG/1.1/DTD/svg11.dtd">
<svg version="1.1" id="Layer_1" xmlns="http://www.w3.org/2000/svg" xmlns:xlink="http://www.w3.org/1999/xlink" x="0px" y="0px"
	 width="366.829px" height="367px" viewBox="0 0 366.829 367" enable-background="new 0 0 366.829 367" xml:space="preserve">
<circle fill="#F7922C" cx="183.5" cy="183.5" r="183.5"/>
<g>
	<path fill="#FFFFFF" d="M159.463,117.243v78.144h-20.67v-78.144H159.463z M153.666,145.223v-21.678h-9.075v21.678H153.666z"/>
	<path fill="#FFFFFF" d="M186.436,134.132v61.254h-20.67v-61.254H186.436z M180.638,163.373v-23.191h-9.075v23.191H180.638z"/>
	<path fill="#FFFFFF" d="M213.66,149.256v46.13h-20.67v-46.13H213.66z M207.862,175.22v-20.418h-9.075v20.418H207.862z"/>
	<path fill="#FFFFFF" d="M240.127,172.7v22.687h-19.662V172.7H240.127z M234.834,186.563v-8.57h-8.822v8.57H234.834z"/>
</g>
<g>
	<g>
		<g>
			<g>
				<path fill="#FFFFFF" d="M267.604,234.962c3.277,0,5.797-2.773,5.797-5.798V112.453c0-3.277-2.772-5.797-5.797-5.797H97.705
					c-3.277,0-5.798,2.773-5.798,5.797v116.711c0,3.277,2.773,5.798,5.798,5.798H267.604z M204.585,264.455h26.216
					c1.26,0,2.269,1.008,2.269,2.269v3.529c0,1.261-1.009,2.269-2.269,2.269h-96.293c-1.26,0-2.269-1.008-2.269-2.269v-3.529
					c0-1.261,1.009-2.269,2.269-2.269h26.216V246.81h-23.947h-12.352h-26.72c-9.831,0-17.645-7.814-17.645-17.646V112.453
					c0-9.831,7.814-17.645,17.645-17.645h169.899c9.831,0,17.646,7.814,17.646,17.645v116.711c0,9.579-7.814,17.646-17.646,17.646
					h-24.451h-12.352h-26.216V264.455z"/>
			</g>
		</g>
	</g>
</g>
<g>
	<g>
		<g>
			<polygon fill="#FFFFFF" points="186.436,221.35 155.43,221.35 124.677,221.35 106.024,221.35 106.024,171.691 106.024,164.129 
				106.024,156.063 106.024,152.533 106.024,132.871 106.024,119.512 106.024,118.755 106.024,117.243 122.913,117.243 
				122.913,124.805 113.586,124.805 113.586,132.871 122.913,132.871 122.913,140.434 113.586,140.434 113.586,148.5 122.913,148.5 
				122.913,156.063 113.586,156.063 113.586,164.129 122.913,164.129 122.913,171.691 113.586,171.691 113.586,179.757 
				122.913,179.757 122.913,187.32 113.586,187.32 113.586,195.386 122.913,195.386 122.913,202.949 113.586,202.949 
				113.586,213.788 124.677,213.788 124.677,204.209 132.239,204.209 132.239,213.536 140.054,213.536 140.054,204.209 
				147.616,204.209 147.616,213.788 155.43,213.788 155.43,204.209 162.993,204.209 162.993,213.536 171.059,213.536 
				171.059,204.209 178.622,204.209 178.622,213.788 186.436,213.788 186.436,204.209 193.998,204.209 193.998,213.788 
				202.064,213.788 202.064,204.209 209.627,204.209 209.627,213.788 217.441,213.788 217.441,204.209 225.003,204.209 
				225.003,213.536 233.07,213.788 233.07,204.209 240.632,204.209 240.632,213.788 248.699,213.788 248.699,204.209 
				256.26,204.209 256.26,213.788 256.26,213.788 256.26,221.35 209.627,221.35 			"/>
		</g>
	</g>
</g>
</svg>
