<?xml version="1.0" encoding="utf-8"?>
<!-- Generator: Adobe Illustrator 16.0.0, SVG Export Plug-In . SVG Version: 6.00 Build 0)  -->
<!DOCTYPE svg PUBLIC "-//W3C//DTD SVG 1.1//EN" "http://www.w3.org/Graphics/SVG/1.1/DTD/svg11.dtd">
<svg version="1.1" id="Layer_1" xmlns="http://www.w3.org/2000/svg" xmlns:xlink="http://www.w3.org/1999/xlink" x="0px" y="0px"
	 width="366.829px" height="367px" viewBox="0 0 366.829 367" enable-background="new 0 0 366.829 367" xml:space="preserve">
<circle fill="#F7922C" cx="183.5" cy="183.5" r="183.5"/>
<g>
	<g>
		<path fill="#FFFFFF" d="M280.084,116.684v111.01c0,9.111-7.433,16.784-16.784,16.784h-23.257h-11.749h-24.695v16.784h24.936
			c1.199,0,2.158,0.959,2.158,2.158v3.357c0,1.198-0.959,2.158-2.158,2.158h-91.83c-1.198,0-2.157-0.959-2.157-2.158v-3.357
			c0-1.199,0.959-2.158,2.157-2.158h24.936v-16.784h-22.778h-11.749H101.7c-9.351,0-16.784-7.433-16.784-16.784v-111.01
			c0-9.351,7.433-16.784,16.784-16.784H263.3C272.651,99.9,280.084,107.333,280.084,116.684z M268.814,227.694v-111.01
			c0-3.117-2.637-5.515-5.514-5.515H101.7c-3.117,0-5.515,2.638-5.515,5.515v111.01c0,3.117,2.638,5.515,5.515,5.515H263.3
			C266.417,233.209,268.814,230.811,268.814,227.694z"/>
		<path fill="#FFFFFF" d="M241.002,146.175l-5.994,5.035c0,1.678,0,3.117-0.239,4.795l5.514,5.275
			c-0.719,2.398-1.678,4.556-3.117,6.713l-7.672-0.719c-0.959,1.199-2.158,2.158-3.356,3.117l0.239,7.913
			c-0.958,0.479-2.158,1.199-3.356,1.438c-1.199,0.479-2.398,0.719-3.597,0.959l-5.035-5.994c-1.678,0-3.117,0-4.795-0.24
			l-5.515,5.515c-2.397-0.719-4.555-1.678-6.713-3.117l0.719-7.673c-1.199-0.959-2.158-2.158-3.117-3.356l-7.672,0.479
			c-0.479-1.199-1.199-2.158-1.438-3.357c-0.479-1.199-0.719-2.397-0.959-3.596l5.994-5.035c0-1.678,0-3.117,0.24-4.556
			l-5.515-5.514c0.719-2.398,1.678-4.556,3.117-6.714l7.672,0.72c0.959-1.199,2.158-2.158,3.357-3.117l-0.479-7.913
			c0.958-0.479,2.158-1.199,3.356-1.438c1.199-0.479,2.398-0.719,3.597-0.959l5.035,5.994c1.678,0,3.117,0,4.795,0.24l5.515-5.515
			c2.398,0.719,4.556,1.678,6.713,3.117l-0.719,7.673c1.198,0.959,2.158,2.157,3.117,3.356l7.912-0.24
			c0.479,1.199,1.199,2.158,1.439,3.357C240.522,143.777,240.763,144.976,241.002,146.175z M224.698,154.087
			c0.72-6.474-4.076-12.228-10.55-12.947c-6.473-0.719-12.467,4.076-12.947,10.55c-0.72,6.474,4.076,12.467,10.549,12.947
			C218.225,165.356,223.979,160.561,224.698,154.087z"/>
		<path fill="#FFFFFF" d="M191.131,184.297l-7.433,5.275c0,1.918-0.24,3.597-0.719,5.274l5.994,6.953
			c-1.199,2.638-2.398,5.035-4.316,7.433l-8.872-1.679c-1.438,1.199-2.877,2.397-4.315,3.357l-0.719,9.111
			c-1.199,0.479-2.638,0.958-4.076,1.438c-1.438,0.479-2.877,0.719-4.315,0.719l-5.275-7.433c-1.918,0-3.597-0.239-5.275-0.719
			l-6.953,5.995c-2.637-0.959-5.035-2.398-7.433-4.316l1.679-8.872c-1.199-1.199-2.398-2.637-3.356-4.315l-9.111-0.72
			c-0.479-1.199-0.959-2.637-1.438-4.076s-0.72-2.877-0.72-4.076l7.673-5.275c0-1.918,0.24-3.596,0.719-5.274l-5.994-6.953
			c1.199-2.638,2.398-5.035,4.315-7.433l8.872,1.678c1.199-1.199,2.877-2.397,4.316-3.356l0.719-9.111
			c1.199-0.479,2.637-0.959,4.076-1.438c1.439-0.479,2.877-0.719,4.316-0.719l5.275,7.433c1.918,0,3.596,0.24,5.274,0.72
			l6.953-5.995c2.637,1.199,5.035,2.398,7.433,4.316l-1.678,8.872c1.199,1.199,2.397,2.637,3.356,4.315l9.111,0.72
			c0.479,1.199,0.959,2.637,1.438,4.076C190.652,181.42,190.892,182.859,191.131,184.297z M171.471,191.49
			c1.438-7.433-3.357-14.865-10.789-16.304c-7.433-1.439-14.626,3.356-16.304,10.789c-1.439,7.433,3.356,14.866,10.789,16.304
			C162.6,203.958,169.792,198.923,171.471,191.49z"/>
	</g>
</g>
</svg>
