<?xml version="1.0" encoding="utf-8"?>
<!-- Generator: Adobe Illustrator 16.0.0, SVG Export Plug-In . SVG Version: 6.00 Build 0)  -->
<!DOCTYPE svg PUBLIC "-//W3C//DTD SVG 1.1//EN" "http://www.w3.org/Graphics/SVG/1.1/DTD/svg11.dtd">
<svg version="1.1" id="Layer_1" xmlns="http://www.w3.org/2000/svg" xmlns:xlink="http://www.w3.org/1999/xlink" x="0px" y="0px"
	 width="366.829px" height="367px" viewBox="0 0 366.829 367" enable-background="new 0 0 366.829 367" xml:space="preserve">
<circle fill="#DF3526" cx="183.5" cy="183.5" r="183.5"/>
<path fill="#FFFFFF" d="M202.252,238.007h-56.687c-2.407,0-4.361,1.954-4.361,4.36v34.884c0,2.408,1.954,4.361,4.361,4.361h56.687
	c2.41,0,4.361-1.953,4.361-4.361v-34.884C206.613,239.963,204.662,238.007,202.252,238.007z M201.215,246.405l-26.164,17.443
	c-0.35,0.217-0.748,0.322-1.143,0.322c-0.395,0-0.791-0.106-1.14-0.322l-26.164-17.443c-1.027-0.63-1.345-1.97-0.714-2.998
	c0.632-1.027,1.973-1.35,3-0.715l25.021,16.74l25.023-16.74c1.023-0.635,2.368-0.312,2.998,0.715
	C202.558,244.428,202.242,245.775,201.215,246.405z M173.471,150.084c7.827,0,14.172,6.345,14.172,14.172
	c0,7.828-6.345,14.172-14.172,14.172c-7.827,0-14.171-6.344-14.171-14.172C159.299,156.429,165.644,150.084,173.471,150.084z
	 M205.085,160.986c6.022,0,10.901,4.881,10.901,10.901c0,6.02-4.879,10.902-10.901,10.902c-6.02,0-10.901-4.882-10.901-10.902
	C194.184,165.868,199.065,160.986,205.085,160.986z M220.347,204.592c0-10.838-6.836-19.623-15.262-19.623
	c-5.821,0-10.877,4.193-13.452,10.356c-3.522-8.767-10.335-14.716-18.164-14.716c-11.442,0-20.712,12.689-20.712,28.344h41.425
	c0-1.487-0.108-2.939-0.269-4.361H220.347z M225.431,133.99h-3.441c-3.802,0-6.883-2.871-6.883-6.412V98.72
	c0-3.543,3.083-6.412,6.883-6.412h51.64c3.803,0,6.885,2.872,6.885,6.412v28.855c0,3.543-3.083,6.413-6.885,6.413h-34.426
	l-13.773,12.827V133.99z M102.365,135.798l5.335-10.675c0.368-0.739,1.124-1.206,1.952-1.206h3.013c1.204,0,2.18,0.975,2.18,2.18
	v8.721c0,1.206,0.977,2.181,2.18,2.181l0,0h8.721c1.203,0,2.18,0.975,2.18,2.18l0,0v21.802c0,1.206-0.977,2.18-2.18,2.18h-18.72
	c-0.577,0-1.134-0.229-1.541-0.639l-5.263-5.263c-0.41-0.41-0.964-0.639-1.542-0.639h-1.277c-1.204,0-2.18-0.975-2.18-2.181v-15.262
	c0-1.206,0.977-2.18,2.18-2.18l0,0h3.013C101.24,137.003,101.994,136.537,102.365,135.798z M93.04,137.003v21.803
	c0,1.206-0.977,2.181-2.18,2.181h-6.872c-1.066,0-1.976-0.772-2.15-1.823l-3.634-21.803c-0.197-1.188,0.603-2.311,1.792-2.507
	c0.117-0.022,0.237-0.031,0.359-0.031h10.507C92.065,134.823,93.04,135.798,93.04,137.003z M220.347,267.172
	c-1.734,0-3.369-1.04-4.049-2.747c-0.893-2.235,0.195-4.772,2.431-5.669c31.316-12.497,51.551-42.352,51.551-76.053
	c0-11.463-2.34-22.581-6.959-33.042c-0.973-2.202,0.024-4.777,2.226-5.752c2.195-0.971,4.774,0.022,5.751,2.227
	c5.108,11.579,7.701,23.883,7.701,36.567c0,37.292-22.389,70.321-57.034,84.155C221.432,267.07,220.887,267.172,220.347,267.172
	L220.347,267.172z M129.081,259.068c-0.89,0-1.785-0.268-2.558-0.83c-23.447-17.017-37.447-44.439-37.447-73.35
	c0-2.998,0.153-6.05,0.454-9.072c0.24-2.396,2.372-4.15,4.77-3.907c2.396,0.24,4.145,2.374,3.908,4.771
	c-0.273,2.734-0.411,5.497-0.411,8.207c0,26.125,12.652,50.912,33.847,66.293c1.949,1.411,2.383,4.141,0.968,6.09
	C131.76,258.447,130.43,259.068,129.081,259.068L129.081,259.068z M122.336,118.122c-1.099,0-2.198-0.412-3.046-1.24
	c-1.724-1.681-1.757-4.443-0.074-6.166c17.205-17.623,40.224-27.328,64.822-27.328c6.632,0,13.319,0.746,19.881,2.215
	c2.351,0.527,3.829,2.858,3.301,5.208c-0.525,2.351-2.849,3.824-5.208,3.301c-5.937-1.33-11.981-2.004-17.975-2.004
	c-22.229,0-43.032,8.772-58.583,24.701C124.602,117.684,123.471,118.122,122.336,118.122L122.336,118.122z"/>
</svg>
