<?xml version="1.0" encoding="utf-8"?>
<!-- Generator: Adobe Illustrator 16.0.0, SVG Export Plug-In . SVG Version: 6.00 Build 0)  -->
<!DOCTYPE svg PUBLIC "-//W3C//DTD SVG 1.1//EN" "http://www.w3.org/Graphics/SVG/1.1/DTD/svg11.dtd">
<svg version="1.1" id="Layer_1" xmlns="http://www.w3.org/2000/svg" xmlns:xlink="http://www.w3.org/1999/xlink" x="0px" y="0px"
	 width="366.829px" height="367px" viewBox="0 0 366.829 367" enable-background="new 0 0 366.829 367" xml:space="preserve">
<circle fill="#DF3526" cx="183.5" cy="183.5" r="183.5"/>
<path fill="#FFFFFF" d="M276.129,238.937c11.161-6.805,18.634-19.1,18.634-33.079c0-13.882-7.324-26.079-18.335-32.907V99.044
	c0-3.909-3.167-7.078-7.076-7.078H85.439c-3.882,0-7.051,3.169-7.051,7.078v120.248c0,3.91,3.169,7.078,7.051,7.078h77.818
	l-20.291,20.288c-4.402,4.404-2.92,7.994,3.317,7.994h62.253c6.21,0,7.719-3.587,3.291-7.994l-20.291-20.288h31.843
	c6.829,10.885,18.953,18.135,32.733,18.135c0.349,0,0.692,0,1.017-0.024l9.796,33.425c1.263,4.333,5.223,7.129,9.504,7.129
	c0.914,0,1.855-0.125,2.772-0.396c5.247-1.559,8.266-7.052,6.729-12.299L276.129,238.937z M217.467,205.86
	c0,2.153,0.174,4.281,0.52,6.357l-125.473,0.249V106.372l169.762-0.252v61.56c-2.006-0.321-4.06-0.496-6.162-0.496
	C234.788,167.184,217.467,184.53,217.467,205.86z M267.298,229.636c-2.399,1.139-4.998,1.905-7.719,2.275
	c-1.139,0.15-2.3,0.223-3.464,0.223c-6.185,0-11.901-2.152-16.378-5.764c-4.453-3.515-7.695-8.464-9.129-14.155
	c-0.494-2.027-0.767-4.156-0.767-6.357c0-14.501,11.778-26.303,26.277-26.303c2.129,0,4.183,0.249,6.161,0.745
	c5.666,1.362,10.588,4.553,14.153,8.909c3.737,4.553,5.963,10.341,5.963,16.652c0,7.298-2.995,13.904-7.818,18.681
	C272.469,226.617,270.021,228.349,267.298,229.636z"/>
<path fill="#FFFFFF" d="M271.183,217.674c-0.447,0-0.897-0.122-1.304-0.373c-1.161-0.721-1.516-2.248-0.796-3.406
	c1.498-2.412,2.289-5.191,2.289-8.045c0-5.738-3.172-10.936-8.273-13.568c-1.214-0.626-1.69-2.119-1.063-3.333
	c0.626-1.214,2.116-1.688,3.333-1.063c6.756,3.484,10.953,10.368,10.953,17.966c0,3.778-1.05,7.462-3.036,10.658
	C272.817,217.26,272.01,217.674,271.183,217.674z"/>
<path fill="#FFFFFF" d="M126.355,194.324c-3.341,0-6.047-2.707-6.047-6.047v-25.399c0-3.341,2.707-6.047,6.047-6.047
	s6.047,2.707,6.047,6.047v25.399C132.403,191.617,129.696,194.324,126.355,194.324z"/>
<path fill="#FFFFFF" d="M142.482,194.324c-3.34,0-6.047-2.707-6.047-6.047v-36.285c0-3.34,2.707-6.047,6.047-6.047
	c3.341,0,6.047,2.707,6.047,6.047v36.285C148.53,191.617,145.824,194.324,142.482,194.324z"/>
<path fill="#FFFFFF" d="M207.189,194.324c-3.341,0-6.047-2.707-6.047-6.047v-12.095c0-3.341,2.706-6.047,6.047-6.047
	c3.34,0,6.047,2.707,6.047,6.047v12.095C213.237,191.617,210.53,194.324,207.189,194.324z"/>
<path fill="#FFFFFF" d="M158.607,194.324c-3.34,0-6.047-2.707-6.047-6.047v-60.474c0-3.341,2.707-6.047,6.047-6.047
	c3.341,0,6.047,2.707,6.047,6.047v60.474C164.654,191.617,161.948,194.324,158.607,194.324z"/>
<path fill="#FFFFFF" d="M174.734,194.324c-3.341,0-6.047-2.707-6.047-6.047v-36.285c0-3.34,2.707-6.047,6.047-6.047
	s6.047,2.707,6.047,6.047v36.285C180.782,191.617,178.075,194.324,174.734,194.324z"/>
<path fill="#FFFFFF" d="M190.861,194.324c-3.34,0-6.047-2.707-6.047-6.047v-48.379c0-3.341,2.707-6.047,6.047-6.047
	c3.341,0,6.048,2.707,6.048,6.047v48.379C196.909,191.617,194.202,194.324,190.861,194.324z"/>
</svg>
