<?xml version="1.0" encoding="utf-8"?>
<!-- Generator: Adobe Illustrator 16.0.0, SVG Export Plug-In . SVG Version: 6.00 Build 0)  -->
<!DOCTYPE svg PUBLIC "-//W3C//DTD SVG 1.1//EN" "http://www.w3.org/Graphics/SVG/1.1/DTD/svg11.dtd">
<svg version="1.1" id="Layer_1" xmlns="http://www.w3.org/2000/svg" xmlns:xlink="http://www.w3.org/1999/xlink" x="0px" y="0px"
	 width="366.829px" height="367px" viewBox="0 0 366.829 367" enable-background="new 0 0 366.829 367" xml:space="preserve">
<circle fill="#DF3526" cx="183.5" cy="183.5" r="183.5"/>
<g>
	<rect x="88.295" y="104.584" fill="#FFFFFF" width="21.138" height="4.284"/>
	<rect x="88.295" y="111.633" fill="#FFFFFF" width="80.317" height="4.286"/>
	<rect x="88.295" y="126.272" fill="#FFFFFF" width="147.96" height="14.973"/>
	<rect x="88.295" y="152.025" fill="#FFFFFF" width="111.32" height="4.289"/>
	<rect x="88.295" y="158.6" fill="#FFFFFF" width="144.2" height="4.292"/>
	<rect x="88.295" y="179.85" fill="#FFFFFF" width="41.333" height="34.287"/>
	<rect x="88.295" y="219.664" fill="#FFFFFF" width="33.819" height="4.287"/>
	<rect x="88.295" y="229.526" fill="#FFFFFF" width="25.048" height="4.289"/>
	<rect x="138.711" y="179.85" fill="#FFFFFF" width="41.335" height="34.287"/>
	<rect x="138.711" y="219.664" fill="#FFFFFF" width="33.816" height="4.287"/>
	<rect x="138.711" y="229.526" fill="#FFFFFF" width="25.05" height="4.289"/>
	<path fill="#FFFFFF" d="M189.12,223.948h1.218c0.435-1.458,0.961-2.877,1.501-4.287h-2.717v4.287H189.12z"/>
	<path fill="#FFFFFF" d="M278.771,262.398l-8.821,8.824v-0.01c-0.293,0.303-0.293,0.786,0,1.086c0.308,0.302,0.793,0.302,1.088,0
		l8.822-8.822c0.292-0.292,0.292-0.778,0-1.079C279.549,262.106,279.081,262.106,278.771,262.398z"/>
	<path fill="#FFFFFF" d="M249.121,188.959c-29.049,0-52.609,23.549-52.609,52.604c0,29.057,23.56,52.609,52.609,52.609
		c29.046,0,52.606-23.552,52.606-52.609C301.728,212.509,278.167,188.959,249.121,188.959z M257.678,212.42
		c3.831-3.841,9.307-5.087,14.196-3.729l-7.517,7.514c-2.055,2.047-2.055,5.357,0,7.404l2.714,2.717
		c2.042,2.047,5.354,2.047,7.397,0l7.517-7.515c1.363,4.892,0.117,10.351-3.729,14.191c-3.846,3.847-9.308,5.093-14.209,3.739
		l-3.228,3.241c-0.046-0.211-0.074-0.435-0.074-0.618l-0.03-1.328l-1.086-0.761c-0.603-0.427-1.279-0.728-1.966-0.954
		c0.542-0.938,0.468-2.16-0.341-2.966c-0.966-0.956-2.505-0.956-3.464,0l-1.244,1.239l-3.317-3.325l4.635-4.652
		C252.588,221.732,253.819,216.276,257.678,212.42z M216.185,209.617c0.188-0.204,0.321-0.326,0.395-0.404c0,0,0,0,0.175-0.176
		c0.086-0.086,0.219-0.213,0.412-0.402c0.575-0.583,1.668-0.524,1.668-0.524s5.2,2.895,6.624,3.966
		c1.012,1.124,3.551,6.209,3.551,6.209l16.028,16.023c0,0,0.631-0.753,1.16-1.163c0.57-0.227,1.203-0.059,1.203-0.059l4.169,4.171
		l-3.582,3.582h-0.013l-3.172,3.182l-4.167-4.164c0,0-0.163-0.633,0.056-1.216c0.41-0.521,1.16-1.152,1.16-1.152l-16.015-16.021
		c0,0-5.095-2.538-6.222-3.559c-1.071-1.417-3.963-6.621-3.963-6.621S215.613,210.197,216.185,209.617z M240.552,270.709
		c-3.836,3.843-9.308,5.09-14.197,3.737l7.514-7.527c2.058-2.038,2.058-5.355,0-7.395l-2.712-2.716
		c-2.042-2.047-5.359-2.047-7.399,0l-7.514,7.517c-1.363-4.897-0.117-10.355,3.727-14.199c3.849-3.848,9.31-5.087,14.194-3.731
		l4.655-4.652l3.332,3.325l-1.01,1.01c-0.972,0.964-0.972,2.521,0,3.472c0.73,0.733,1.801,0.898,2.696,0.506
		c0.239,0.712,0.547,1.396,0.987,2.035l0.781,1.094l1.32,0.023c0.191,0,0.397,0.03,0.618,0.065l-3.246,3.241
		C245.642,261.409,244.395,266.868,240.552,270.709z M281.03,269.615l-3.859,3.874c-2.056,2.047-5.357,2.047-7.415,0l-7.089-7.1
		c-0.013-2.885-2.01-6.868-5.474-10.333c-3.419-3.418-7.354-5.418-10.229-5.464c-1.424-2.05-1.231-4.884,0.601-6.703l3.874-3.879
		c1.821-1.826,4.652-2.02,6.692-0.587c0.059,2.877,2.058,6.802,5.474,10.213c3.465,3.465,7.443,5.477,10.333,5.477l7.089,7.104
		C283.087,264.266,283.087,267.575,281.03,269.615z"/>
	<rect x="88.295" y="249.723" fill="#FFFFFF" width="94.097" height="4.289"/>
	<path fill="#FFFFFF" d="M230.455,183.101v-3.248H189.12v34.287h5.148C201.618,199.473,214.621,188.15,230.455,183.101z"/>
	<polygon fill="#FFFFFF" points="76.551,93.115 250.658,93.115 250.658,180.364 254.417,180.364 254.417,76.828 72.794,76.828 
		72.794,270.974 194.319,270.974 194.319,267.214 76.551,267.214 	"/>
</g>
</svg>
