<?xml version="1.0" encoding="utf-8"?>
<!-- Generator: Adobe Illustrator 16.0.0, SVG Export Plug-In . SVG Version: 6.00 Build 0)  -->
<!DOCTYPE svg PUBLIC "-//W3C//DTD SVG 1.1//EN" "http://www.w3.org/Graphics/SVG/1.1/DTD/svg11.dtd">
<svg version="1.1" id="Layer_1" xmlns="http://www.w3.org/2000/svg" xmlns:xlink="http://www.w3.org/1999/xlink" x="0px" y="0px"
	 width="1056px" height="1056px" viewBox="-226.75 -192.147 1056 1056" enable-background="new -226.75 -192.147 1056 1056"
	 xml:space="preserve">
<circle fill="#FFFFFF" cx="301.25" cy="335.853" r="528"/>
<g>
	<path fill="none" d="M321.465,132.594c5.012,3.673,15.632,1.779,27.377-1.261c-10.609-6.799-21.938-12.571-33.843-17.181
		C315.905,122.797,317.636,129.789,321.465,132.594z"/>
	<path fill="none" d="M258.462,101.767c-3.955-0.246-7.942-0.374-11.957-0.374c-4.013,0-7.992,0.14-11.943,0.386
		c4.261,3.946,8.304,6.494,11.942,6.494C250.147,108.272,254.196,105.72,258.462,101.767z"/>
	<path fill="none" d="M475.257,176.518c30.039,0,54.382-24.343,54.382-54.381s-24.343-54.375-54.382-54.375
		c-30.038,0-54.382,24.337-54.382,54.375C420.875,152.168,445.219,176.518,475.257,176.518z"/>
	<path fill="none" d="M246.504,151.533c-46.555,0-84.277,37.723-84.277,84.277s37.723,84.285,84.277,84.285
		s84.277-37.73,84.277-84.285S293.059,151.533,246.504,151.533z"/>
	<path fill="none" d="M171.544,132.594c3.828-2.805,5.562-9.797,6.471-18.441c-11.908,4.61-23.244,10.377-33.861,17.177
		C155.908,134.372,166.54,136.269,171.544,132.594z"/>
	<path fill="#FF1E30" d="M348.842,131.333c-11.745,3.04-22.365,4.934-27.377,1.261c-3.829-2.805-5.561-9.797-6.466-18.441
		c-17.731-6.864-36.733-11.15-56.537-12.386c-4.267,3.953-8.315,6.506-11.958,6.506c-3.639,0-7.682-2.548-11.942-6.494
		c-19.814,1.234-38.817,5.511-56.547,12.374c-0.909,8.645-2.643,15.637-6.471,18.441c-5.004,3.675-15.636,1.778-27.391-1.265
		c-12.938,8.286-24.813,18.092-35.369,29.166c9.204,13.759,18.841,28.06,16.368,35.825c-2.487,7.698-18.783,13.322-34.365,19.182
		c-0.792,6.658-1.283,13.401-1.283,20.309c0,6.9,0.484,13.645,1.283,20.309c15.583,5.859,31.878,11.477,34.365,19.175
		c2.481,7.792-7.229,22.162-16.46,35.962c6.509,11.805,14.449,22.562,23.596,32.327c15.975-4.405,32.597-9.46,39.256-4.563
		c6.585,4.826,6.978,21.991,7.619,38.699c11.883,5.682,24.642,9.788,37.887,12.354c10.436-13.088,21.029-26.739,29.454-26.739
		c8.426,0,19.024,13.651,29.461,26.739c13.244-2.566,26.003-6.68,37.895-12.354c0.642-16.708,1.033-33.873,7.605-38.699
		c6.672-4.904,23.281,0.149,39.256,4.563c9.159-9.766,17.086-20.522,23.602-32.327c-9.231-13.808-18.939-28.17-16.445-35.962
		c2.466-7.698,18.77-13.315,34.345-19.175c0.79-6.665,1.289-13.408,1.289-20.309c0-6.907-0.491-13.65-1.289-20.309
		c-15.575-5.859-31.879-11.483-34.345-19.182c-2.502-7.791,7.214-22.162,16.445-35.962c-6.152-11.152-13.587-21.361-22.122-30.647
		c-1.195,2.794-2.295,5.638-3.281,8.535C355.641,135.835,352.277,133.533,348.842,131.333z M246.504,320.096
		c-46.555,0-84.277-37.73-84.277-84.285s37.723-84.277,84.277-84.277s84.277,37.723,84.277,84.277S293.059,320.096,246.504,320.096z
		"/>
	<path fill="#66585A" d="M396.939,96.66c-1.597,4.968-12.11,8.597-22.161,12.375c-0.514,4.291-0.827,8.646-0.827,13.102
		s0.313,8.803,0.827,13.102c10.051,3.778,20.571,7.406,22.161,12.375c1.611,5.025-4.654,14.299-10.613,23.21
		c4.205,7.612,9.331,14.555,15.226,20.856c10.308-2.845,21.035-6.102,25.334-2.937c4.248,3.107,4.505,14.186,4.918,24.963
		c7.663,3.664,15.904,6.316,24.442,7.977c6.744-8.447,13.58-17.251,19.012-17.251c5.439,0,12.275,8.812,19.012,17.251
		c8.54-1.653,16.779-4.306,24.449-7.977c0.421-10.777,0.663-21.855,4.904-24.963c4.306-3.165,15.02,0.092,25.335,2.937
		c5.909-6.302,11.026-13.237,15.232-20.857c-5.959-8.91-12.232-18.184-10.614-23.209c1.59-4.969,12.118-8.597,22.161-12.375
		c0.507-4.299,0.827-8.653,0.827-13.102c0-4.455-0.32-8.811-0.827-13.102c-10.043-3.786-20.571-7.414-22.161-12.375
		c-1.618-5.033,4.655-14.299,10.614-23.202c-4.206-7.613-9.323-14.557-15.232-20.822c-10.308,2.852-21.021,6.06-25.335,2.901
		c-4.248-3.108-4.49-14.192-4.904-24.963c-7.662-3.679-15.903-6.315-24.449-7.977c-6.736,8.447-13.572,17.243-19.012,17.243
		c-5.432,0-12.268-8.804-19.012-17.243c-8.531,1.661-16.779,4.298-24.442,7.977c-0.42,10.771-0.677,21.854-4.918,24.963
		c-4.299,3.158-15.02-0.05-25.334-2.901c-5.895,6.266-11.021,13.209-15.226,20.822C392.284,82.361,398.55,91.635,396.939,96.66z
		 M475.257,67.762c30.039,0,54.382,24.337,54.382,54.375s-24.343,54.381-54.382,54.381c-30.038,0-54.382-24.35-54.382-54.381
		C420.875,92.099,445.219,67.762,475.257,67.762z"/>
	<path fill="#66585A" d="M581.961,549.047L452.085,419.67c21.812-34.787,34.999-75.631,36.496-119.398
		c-4.419,0.499-8.839,0.713-13.33,0.713c-13.479,0-26.374-2.139-38.492-6.202c-1.639,103.503-86.323,187.26-190.254,187.26
		c-104.928,0-190.325-85.396-190.325-190.325c0-50.814,20.029-97.049,52.604-131.222c10.557-11.074,22.432-20.88,35.369-29.166
		c10.617-6.8,21.953-12.566,33.861-17.177c17.729-6.863,36.732-11.14,56.547-12.374c3.951-0.246,7.931-0.386,11.943-0.386
		c4.015,0,8.002,0.128,11.957,0.374c19.804,1.235,38.806,5.521,56.537,12.386c11.904,4.609,23.233,10.382,33.843,17.181
		c3.435,2.2,6.799,4.502,10.077,6.913c0.986-2.897,2.086-5.741,3.281-8.535c5.715-13.364,13.764-25.51,23.662-35.945
		c-39.418-27.943-87.535-44.267-139.357-44.267c-133.583,0-242.218,108.635-242.218,242.218
		c0,133.584,108.635,242.218,242.218,242.218c43.696,0,84.755-11.547,120.112-31.869l131.516,130.731
		c21.599,21.748,56.813,21.748,78.41,0l5.418-5.346C603.631,605.86,603.631,570.647,581.961,549.047z"/>
</g>
</svg>
