<?xml version="1.0" encoding="utf-8"?>
<!-- Generator: Adobe Illustrator 16.0.0, SVG Export Plug-In . SVG Version: 6.00 Build 0)  -->
<!DOCTYPE svg PUBLIC "-//W3C//DTD SVG 1.1//EN" "http://www.w3.org/Graphics/SVG/1.1/DTD/svg11.dtd">
<svg version="1.1" id="Layer_1" xmlns="http://www.w3.org/2000/svg" xmlns:xlink="http://www.w3.org/1999/xlink" x="0px" y="0px"
	 width="1056px" height="1056px" viewBox="-226.75 -192.147 1056 1056" enable-background="new -226.75 -192.147 1056 1056"
	 xml:space="preserve">
<circle fill="#FFFFFF" cx="301.25" cy="335.853" r="528"/>
<path fill="#66585A" d="M624.476,88.118H-8.473c-11.979,0-21.729,9.75-21.729,21.729v449.675c0,11.994,9.75,21.744,21.729,21.744
	h632.948c11.993,0,21.743-9.75,21.743-21.744v-449.69C646.218,97.853,636.468,88.118,624.476,88.118z M29.576,153.791
	c0-10.771,8.757-19.528,19.528-19.528c10.785,0,19.542,8.757,19.542,19.528c0,10.785-8.757,19.542-19.542,19.542
	C38.333,173.348,29.576,164.576,29.576,153.791z M89.511,153.791c0-10.771,8.758-19.528,19.543-19.528
	c10.77,0,19.528,8.757,19.528,19.528c0,10.785-8.758,19.542-19.528,19.542C98.27,173.348,89.511,164.576,89.511,153.791z
	 M146.888,153.791c0-10.771,8.757-19.528,19.542-19.528c10.771,0,19.528,8.757,19.528,19.528c0,10.785-8.757,19.542-19.528,19.542
	C155.645,173.348,146.888,164.576,146.888,153.791z M601.022,214.734v328.108H14.994V214.734H601.022z"/>
<rect x="48.04" y="247.146" fill="#FF1E30" width="212.651" height="44.952"/>
<path fill="#FF1E30" d="M48.831,326.021c0,2.401,1.942,4.342,4.343,4.342h438.072c2.401,0,4.343-1.941,4.343-4.342
	c0-2.402-1.941-4.343-4.343-4.343H53.159C50.757,321.678,48.831,323.619,48.831,326.021z"/>
<path fill="#FF1E30" d="M48.831,369.375c0,2.402,1.942,4.343,4.343,4.343H556.3c2.401,0,4.343-1.941,4.343-4.343
	c0-2.401-1.941-4.343-4.343-4.343H53.159C50.757,365.047,48.831,366.974,48.831,369.375z"/>
<path fill="#FF1E30" d="M521.602,408.418H53.159c-2.401,0-4.343,1.94-4.343,4.342c0,2.402,1.941,4.343,4.343,4.343h468.428
	c2.401,0,4.343-1.94,4.343-4.343C525.93,410.358,524.002,408.418,521.602,408.418z"/>
<rect x="48.04" y="439.436" fill="#FF1E30" width="212.651" height="44.951"/>
<path fill="#FF1E30" d="M491.231,513.967H53.159c-2.401,0-4.343,1.941-4.343,4.344c0,2.4,1.941,4.342,4.343,4.342h438.071
	c2.401,0,4.344-1.941,4.344-4.342C495.574,515.908,493.632,513.967,491.231,513.967z"/>
</svg>
