<?xml version="1.0" encoding="utf-8"?>
<!-- Generator: Adobe Illustrator 16.0.0, SVG Export Plug-In . SVG Version: 6.00 Build 0)  -->
<!DOCTYPE svg PUBLIC "-//W3C//DTD SVG 1.1//EN" "http://www.w3.org/Graphics/SVG/1.1/DTD/svg11.dtd">
<svg version="1.1" id="Layer_1" xmlns="http://www.w3.org/2000/svg" xmlns:xlink="http://www.w3.org/1999/xlink" x="0px" y="0px"
	 width="1056px" height="1056px" viewBox="-226.75 -192.147 1056 1056" enable-background="new -226.75 -192.147 1056 1056"
	 xml:space="preserve">
<circle fill="#FFFFFF" cx="301.25" cy="335.853" r="528"/>
<path fill="#66585A" d="M423.418-9.155H171.255c-29.563,0-53.753,24.189-53.753,53.752V601.63c0,29.563,24.189,53.753,53.753,53.753
	h252.163c29.563,0,53.753-24.189,53.753-53.753V44.605C477.179,15.042,452.982-9.155,423.418-9.155z M238.271,33.138h118.123
	c5,0,9.091,4.09,9.091,9.09c0,5-4.091,9.09-9.091,9.09H238.271c-5,0-9.089-4.09-9.089-9.09
	C229.181,37.228,233.271,33.138,238.271,33.138z M297.336,632.508c-17.675,0-32.009-14.334-32.009-32.009
	c0-17.676,14.334-32.01,32.009-32.01c17.676,0,32.01,14.334,32.01,32.01C329.346,618.182,315.012,632.508,297.336,632.508z
	 M451.453,545.943H143.22V89.053h308.233V545.943z"/>
<g>
	<g>
		<g>
			<path fill="#FF1E30" d="M386.256,321.18c-1.966-1.911-3.196-4.564-3.241-7.515c-0.627-44.586-37.407-80.342-81.985-79.715
				c-5.902,0.084-10.765-4.641-10.842-10.542c-0.084-5.909,4.641-10.765,10.543-10.841c27.33-0.382,53.156,9.885,72.728,28.914
				c19.57,19.028,30.564,44.563,30.946,71.887c0.084,5.91-4.641,10.764-10.542,10.84
				C390.904,324.245,388.213,323.091,386.256,321.18z"/>
		</g>
	</g>
	<g>
		<g>
			<path fill="#FF1E30" d="M341.807,322.992c-1.964-1.911-3.194-4.564-3.241-7.515c-0.138-10.045-4.182-19.434-11.368-26.421
				c-7.193-6.996-16.688-10.765-26.734-10.627c-5.909,0.084-10.764-4.641-10.842-10.542c-0.082-5.91,4.641-10.764,10.543-10.841
				c15.766-0.222,30.658,5.703,41.949,16.674c11.291,10.978,17.629,25.703,17.851,41.459c0.085,5.91-4.641,10.764-10.542,10.84
				C346.455,326.064,343.764,324.902,341.807,322.992z"/>
		</g>
	</g>
	<path fill="#FF1E30" d="M372.609,438.715c-27.406-2.371-49.563-12.455-70.396-25.688c-48.912-31.077-87.557-71.581-112.328-124.454
		c-3.257-6.949-5.818-14.342-7.783-21.773c-8.233-31.223-1.369-40.97,25.037-60.526c1.989-1.476,4.633-2.477,7.103-2.813
		c21.543-2.997,29.907,13.723,39.434,27.568c10.091,14.663,9.365,25.114-0.176,36.475c-15.199,18.073-16.743,22.515-0.887,40.251
		c19.342,21.636,40.533,41.872,62.658,60.671c14.242,12.103,19.479,10.138,33.111-2.37c12.438-11.414,21.13-12.477,36.068-4.258
		c3.005,1.651,5.849,3.601,8.685,5.535c35.243,24.051,26.384,43.653-5.45,67.56C383.343,438.149,376.318,437.851,372.609,438.715z"
		/>
</g>
</svg>
