<?xml version="1.0" encoding="utf-8"?>
<!-- Generator: Adobe Illustrator 16.0.0, SVG Export Plug-In . SVG Version: 6.00 Build 0)  -->
<!DOCTYPE svg PUBLIC "-//W3C//DTD SVG 1.1//EN" "http://www.w3.org/Graphics/SVG/1.1/DTD/svg11.dtd">
<svg version="1.1" id="Layer_1" xmlns="http://www.w3.org/2000/svg" xmlns:xlink="http://www.w3.org/1999/xlink" x="0px" y="0px"
	 width="1056px" height="1056px" viewBox="-226.75 -192.147 1056 1056" enable-background="new -226.75 -192.147 1056 1056"
	 xml:space="preserve">
<circle fill="#FFFFFF" cx="301.25" cy="335.853" r="528"/>
<rect x="180.982" y="462.831" fill="#66585A" width="50" height="57.143"/>
<rect x="95.268" y="534.26" fill="#66585A" width="135.714" height="14.284"/>
<g>
	<path fill="#66585A" d="M230.982,412.83H40.068c-7.149,0-9.086-1.729-9.086-8.877V162.274c0-7.149,1.937-6.585,9.086-6.585h190.914
		v-35.714H14.383c-10.557,0-19.114,6.058-19.114,16.615v293.049c0,10.556,8.558,18.906,19.114,18.906h216.599V412.83z"/>
</g>
<path fill="#FF1E30" d="M395.267,255.689h-78.571v-78.572h78.571V255.689z M330.981,241.403h50v-50h-50V241.403z"/>
<rect x="416.696" y="191.403" fill="#FF1E30" width="149.999" height="14.285"/>
<rect x="416.696" y="219.975" fill="#FF1E30" width="128.57" height="14.285"/>
<path fill="#FF1E30" d="M395.267,377.117h-78.571v-78.572h78.571V377.117z M330.981,362.831h50v-50h-50V362.831z"/>
<rect x="416.696" y="327.117" fill="#FF1E30" width="114.285" height="14.286"/>
<rect x="416.696" y="355.688" fill="#FF1E30" width="135.713" height="14.286"/>
<path fill="#FF1E30" d="M395.267,498.545h-78.571v-78.571h78.571V498.545z M330.981,484.259h50v-50h-50V484.259z"/>
<rect x="416.696" y="434.259" fill="#FF1E30" width="121.428" height="14.286"/>
<rect x="416.696" y="298.545" fill="#FF1E30" width="142.856" height="14.286"/>
<rect x="416.696" y="462.831" fill="#FF1E30" width="78.57" height="14.286"/>
<path fill="#66585A" d="M45.268,206.667v191.877h185.714v-64.463c0,0-60.614,33.857-101.021-20.022
	c-12.086-16.114-5.308-47.142-30.243-75.535C81.882,218.21,45.268,206.667,45.268,206.667z"/>
<path fill="#66585A" d="M600.481,91.403h-81.086c0-7.143-6.05-14.285-13.514-14.285H391.017c-7.465,0-13.515,7.142-13.515,14.285
	H282.91c-11.192,0-23.356,7.829-23.356,18.429v448.077c0,10.607,12.164,19.207,23.356,19.207h317.571
	c11.192,0,23.356-8.6,23.356-19.2V109.832C623.837,99.232,611.673,91.403,600.481,91.403z M492.373,97.39
	c3.729,0,6.758,3.021,6.758,6.756c0,3.729-3.021,6.757-6.758,6.757c-3.735,0-6.757-3.028-6.757-6.757
	C485.616,100.41,488.638,97.39,492.373,97.39z M404.531,97.39c3.729,0,6.758,3.021,6.758,6.756c0,3.729-3.021,6.757-6.758,6.757
	c-3.734,0-6.757-3.028-6.757-6.757C397.774,100.41,400.803,97.39,404.531,97.39z M595.267,543.331c0,0-1.544,5.213-8.3,5.213
	H296.424c-6.756,0-8.3-5.213-8.3-5.213V124.417c0-6.757,8.3-4.443,8.3-4.443h81.078c0,7.143,6.05,14.286,13.515,14.286h114.864
	c7.464,0,13.514-7.143,13.514-14.286h67.563c0,0,8.3-2.314,8.3,4.443v418.914H595.267z"/>
</svg>
