<?xml version="1.0" encoding="utf-8"?>
<!-- Generator: Adobe Illustrator 16.0.0, SVG Export Plug-In . SVG Version: 6.00 Build 0)  -->
<!DOCTYPE svg PUBLIC "-//W3C//DTD SVG 1.1//EN" "http://www.w3.org/Graphics/SVG/1.1/DTD/svg11.dtd">
<svg version="1.1" id="Layer_1" xmlns="http://www.w3.org/2000/svg" xmlns:xlink="http://www.w3.org/1999/xlink" x="0px" y="0px"
	 width="1056px" height="1056px" viewBox="-226.75 -192.147 1056 1056" enable-background="new -226.75 -192.147 1056 1056"
	 xml:space="preserve">
<circle fill="#FFFFFF" cx="301.25" cy="335.853" r="528"/>
<path fill="#66585A" d="M18.698,101.931c-5.113,0-9.203,4.09-9.203,9.203v431.5c0,5.113,4.09,9.203,9.203,9.203h565.451
	c5.111,0,9.202-4.09,9.202-9.203v-431.5c0-5.113-4.091-9.203-9.202-9.203H18.698z M584.149,571.266H18.698
	c-16.36,0-28.63-13.293-28.63-28.631v-431.5c0-16.36,13.292-28.631,28.63-28.631h565.451c16.359,0,28.63,13.293,28.63,28.631v431.5
	C612.779,558.996,600.508,571.266,584.149,571.266z"/>
<rect x="9.495" y="159.192" fill="#66585A" width="594.081" height="19.427"/>
<rect x="289.663" y="280.872" fill="#66585A" width="159.513" height="19.427"/>
<rect x="289.663" y="318.705" fill="#66585A" width="160.535" height="19.428"/>
<rect x="289.663" y="357.56" fill="#66585A" width="161.558" height="19.427"/>
<rect x="143.444" y="404.597" fill="#66585A" width="308.799" height="19.427"/>
<rect x="143.444" y="443.451" fill="#66585A" width="308.799" height="19.428"/>
<rect x="143.444" y="481.285" fill="#66585A" width="194.278" height="19.428"/>
<path fill="#FF1E30" d="M247.741,385.168h-83.847c-11.249,0-20.451-9.203-20.451-20.451v-65.44c0-11.248,9.202-20.451,20.451-20.451
	h83.847c11.247,0,20.449,9.203,20.449,20.451v65.44C268.191,375.965,258.988,385.168,247.741,385.168z"/>
<circle fill="#66585A" cx="38.125" cy="131.584" r="9.203"/>
<circle fill="#66585A" cx="66.756" cy="131.584" r="9.203"/>
<circle fill="#66585A" cx="94.364" cy="131.584" r="9.203"/>
<rect x="144.467" y="200.092" fill="#FF1E30" width="304.709" height="55.216"/>
</svg>
