<?xml version="1.0" encoding="utf-8"?>
<!-- Generator: Adobe Illustrator 16.0.0, SVG Export Plug-In . SVG Version: 6.00 Build 0)  -->
<!DOCTYPE svg PUBLIC "-//W3C//DTD SVG 1.1//EN" "http://www.w3.org/Graphics/SVG/1.1/DTD/svg11.dtd">
<svg version="1.1" id="Layer_1" xmlns="http://www.w3.org/2000/svg" xmlns:xlink="http://www.w3.org/1999/xlink" x="0px" y="0px"
	 width="1056px" height="1056px" viewBox="-226.75 -192.147 1056 1056" enable-background="new -226.75 -192.147 1056 1056"
	 xml:space="preserve">
<circle fill="#FFFFFF" cx="301.25" cy="335.853" r="528"/>
<path fill="#66585A" d="M614.403,156.971H149.572c-13.232,0-23.968,10.729-23.968,23.967v220.532
	c9.935,8.835,20.812,16.572,32.691,23.031V212.635c0-1.596,0.654-2.992,1.047-4.478l124.106,116.184l-48.484,46.345l29.187,21.815
	l45.573-43.562l59.978,56.184c3.482,3.252,7.848,4.855,12.326,4.855c4.246,0,8.613-1.544,11.977-4.625l61.484-55.434l138.674,132.57
	c-3.662,1.975-7.738,3.43-12.393,3.43H389l47.176,35.246h178.227c13.201,0,23.967-10.7,23.967-23.967V180.931
	C638.369,167.7,627.61,156.971,614.403,156.971z M382.198,367.576l-187.209-175.3h381.777L382.198,367.576z M605.678,443.807
	L482.299,325.811L605.67,214.536v229.271H605.678z"/>
<path fill="#FF1E30" d="M65.359,134.221c-4.084,0-8.198-1.381-11.561-4.217c-7.587-6.4-8.583-17.723-2.183-25.333l4.871-5.628
	c6.616-7.403,17.946-8.071,25.371-1.44c7.402,6.6,8.07,17.96,1.47,25.377l-4.203,4.841
	C75.598,132.046,70.511,134.221,65.359,134.221z M123.517,85.685c-6.221,0-12.287-3.229-15.621-9.028
	c-4.93-8.605-1.953-19.586,6.66-24.532l6.527-3.638c8.694-4.655,19.63-1.381,24.309,7.403c4.685,8.753,1.38,19.646-7.373,24.338
	l-5.584,3.081C129.621,84.928,126.539,85.685,123.517,85.685z M349.788,78.431c-2.503,0-5.093-0.541-7.507-1.67l-5.88-2.606
	c-9.14-3.913-13.357-14.471-9.444-23.604c3.921-9.132,14.479-13.364,23.619-9.451l6.785,3.059
	c9.021,4.173,12.979,14.857,8.731,23.863C363.064,74.578,356.545,78.431,349.788,78.431z M194.447,59.127
	c-8.42,0-15.934-5.918-17.627-14.501c-1.916-9.727,4.44-19.193,14.166-21.116l7.248-1.322c9.912-1.641,19.075,4.916,20.737,14.701
	c1.67,9.786-4.915,19.067-14.693,20.738l-6.341,1.166C196.779,59.045,195.597,59.127,194.447,59.127z M277.092,56.833
	c-0.816,0-1.641-0.059-2.487-0.17l-6.415-0.795c-9.861-1.121-16.959-10.023-15.838-19.884c1.106-9.897,10.195-17.002,19.877-15.852
	l7.313,0.928c9.8,1.366,16.698,10.409,15.324,20.255C293.642,50.306,285.921,56.833,277.092,56.833z"/>
<path fill="#FF1E30" d="M411.459,117.605c-4.076,0-8.205-1.396-11.582-4.248l-2.674-2.25c-7.617-6.385-8.672-17.716-2.271-25.334
	c6.34-7.588,17.625-8.62,25.303-2.264l2.852,2.383c7.566,6.415,8.494,17.775,2.094,25.333
	C421.639,115.437,416.574,117.605,411.459,117.605z"/>
<path fill="#FF1E30" d="M201.649,481.383l-0.275-0.117c-6.69-2.035-13.216-4.798-20.025-6.921
	C53.627,434.406,1.156,298.956,45.074,187.479c4.203-10.684,9.437-20.648,15.176-30.174c-7.966-1.017-15.673-3.735-21.866-8.947
	c-5.835-4.916-9.83-11.137-12.243-17.872c-14.76,19.557-27.308,41.274-36.76,65.249c-54.187,137.708,9.95,291.87,143.254,344.371
	c21.836,8.605,44.223,13.93,66.542,16.253l1.329-0.289l-1.092,95.624l166.093-130.358L202.77,384.186L201.649,481.383z"/>
<path fill="#FF1E30" d="M65.359,134.221c-4.084,0-8.198-1.381-11.561-4.217c-7.587-6.4-8.583-17.723-2.183-25.333l4.871-5.628
	c6.616-7.403,17.946-8.071,25.371-1.44c7.402,6.6,8.07,17.96,1.47,25.377l-4.203,4.841
	C75.598,132.046,70.511,134.221,65.359,134.221z"/>
</svg>
