<?xml version="1.0" encoding="utf-8"?>
<!-- Generator: Adobe Illustrator 16.0.0, SVG Export Plug-In . SVG Version: 6.00 Build 0)  -->
<!DOCTYPE svg PUBLIC "-//W3C//DTD SVG 1.1//EN" "http://www.w3.org/Graphics/SVG/1.1/DTD/svg11.dtd">
<svg version="1.1" id="Layer_1" xmlns="http://www.w3.org/2000/svg" xmlns:xlink="http://www.w3.org/1999/xlink" x="0px" y="0px"
	 width="1056px" height="1056px" viewBox="-226.75 -192.147 1056 1056" enable-background="new -226.75 -192.147 1056 1056"
	 xml:space="preserve">
<circle fill="#FFFFFF" cx="301.25" cy="335.853" r="528"/>
<g>
	<path fill="#FF1E30" d="M530.403,283.007c-3.286-11.965-33.837-12.993-46.126-8.898c-44.7,14.865-89.407,29.737-134.12,44.608
		l-155.185-61.971l-16.377,17.466l66.414,79.744c-42.81,14.798-121.213,42.13-135.441,46.848
		c-12.246,4.076,79.168,17.044,100.123,13.568c0,0,161.035-52.522,232.223-76.212c18.287-6.083,36.592-12.167,54.909-18.262
		C509.063,315.823,533.965,295.976,530.403,283.007z"/>
	<polygon fill="#FF1E30" points="84.194,344.079 71.752,355.566 104.739,394.055 152.548,377.212 	"/>
</g>
<path fill="#66585A" d="M570.53,66.572H31.97c-20.275,0-36.72,16.445-36.72,36.72v465.12c0,20.276,16.444,36.721,36.72,36.721
	h538.56c20.282,0,36.721-16.451,36.721-36.721v-465.12C607.25,83.011,590.812,66.572,570.53,66.572z M478.73,91.053
	c13.495,0,24.479,10.979,24.479,24.48c0,13.5-10.984,24.48-24.479,24.48c-13.494,0-24.479-10.979-24.479-24.48
	C454.25,102.032,465.236,91.053,478.73,91.053z M411.409,91.053c13.495,0,24.48,10.979,24.48,24.48c0,13.5-10.985,24.48-24.48,24.48
	c-13.494,0-24.479-10.979-24.479-24.48C386.93,102.032,397.915,91.053,411.409,91.053z M570.53,568.412H31.97V164.493h538.56
	V568.412z M546.05,140.013c-13.495,0-24.48-10.979-24.48-24.48c0-13.501,10.985-24.48,24.48-24.48
	c13.494,0,24.479,10.979,24.479,24.48C570.53,129.033,559.544,140.013,546.05,140.013z"/>
</svg>
