<?xml version="1.0" encoding="utf-8"?>
<!-- Generator: Adobe Illustrator 16.0.0, SVG Export Plug-In . SVG Version: 6.00 Build 0)  -->
<!DOCTYPE svg PUBLIC "-//W3C//DTD SVG 1.1//EN" "http://www.w3.org/Graphics/SVG/1.1/DTD/svg11.dtd">
<svg version="1.1" id="Layer_1" xmlns="http://www.w3.org/2000/svg" xmlns:xlink="http://www.w3.org/1999/xlink" x="0px" y="0px"
	 width="1056px" height="1056px" viewBox="-226.75 -192.147 1056 1056" enable-background="new -226.75 -192.147 1056 1056"
	 xml:space="preserve">
<circle fill="#FFFFFF" cx="301.25" cy="335.853" r="528"/>
<path fill="#66585A" d="M175.626,108.55c-34.859,19.284-60.078,46.727-77.877,83.812h77.136L175.626,108.55z M183.044,83.333
	c1.483,0,2.225,0,3.708,0c80.845,0,150.565,43.019,189.874,107.546c11.867,19.283,20.026,40.792,25.219,63.785h166.14
	c4.45,0,7.417,2.225,7.417,5.192v232.151c0,0.74,0,0.74,0,1.482l0,0l61.561,89.745c0,4.45-3.709,14.834-8.159,14.834H122.225
	c-4.451,0-8.159-10.384-8.159-14.834l40.793-63.044C48.796,505.357-33.532,413.388-33.532,302.874
	c0.742-40.792,11.867-80.845,31.894-112.737C36.929,126.351,104.424,84.075,183.044,83.333z M554.632,472.723V278.398
	c0-2.225-2.966-4.45-6.675-4.45H404.81h-18.542h-77.137H290.59h-86.779c-3.708,0-6.675,2.225-6.675,4.45v11.867v18.543l0,0v78.619
	l0,0v18.543v67.494c0,2.967,2.967,4.45,6.675,4.45h8.159h25.959h48.21h28.925h5.192h130.538h23.734h72.686
	C550.924,478.656,554.632,476.432,554.632,472.723z M307.648,253.923h75.653c-3.709-15.576-9.642-29.668-16.318-43.019h-69.718
	C300.973,224.997,305.422,238.347,307.648,253.923z M289.848,192.362h66.01c-30.408-46.727-79.36-78.62-136.471-88.262
	C250.538,125.609,274.273,156.761,289.848,192.362z M196.394,253.923h91.971c-2.225-15.576-5.934-29.668-11.867-43.019h-80.104
	V253.923z M196.394,192.362h72.687c-16.317-34.119-40.793-61.562-72.687-81.587V192.362z M175.626,210.904H91.073
	c-7.417,20.767-12.609,43.76-14.092,68.236c0,3.708-0.742,7.417-0.742,11.125h99.387V210.904z M174.143,492.748v-0.74v-86.037
	h-72.687c17.059,34.117,41.535,64.527,72.687,87.52C174.143,492.748,174.143,492.748,174.143,492.748z M174.143,387.428v-79.361
	H76.24c1.483,28.184,6.675,54.144,17.059,78.62h80.845V387.428z M154.117,501.649c-31.892-25.218-56.368-58.595-73.428-95.679
	H13.195C43.605,456.406,94.781,492.008,154.117,501.649z M77.722,192.362c15.576-34.86,38.568-64.528,68.237-86.779
	c-52.661,11.126-98.646,42.277-126.831,86.779H77.722z M4.295,387.428h69.72c-9.642-24.476-14.834-51.918-15.576-78.619h-71.944
	C-13.506,336.25-7.573,362.952,4.295,387.428z M70.305,210.904H7.261c-11.867,23.734-19.284,51.177-20.767,78.62h71.203
	c0-3.709,0-8.159,0.741-12.609C59.18,253.923,63.63,231.671,70.305,210.904z"/>
<rect x="223.337" y="304.88" fill="#FF1E30" width="252.756" height="35.496"/>
<polygon fill="#66585A" points="461.301,392.844 446.614,400.188 457.629,421.607 447.837,426.503 436.822,405.695 422.745,412.428 
	417.238,354.899 "/>
<path fill="#FF1E30" d="M386.741,400.352l-0.612-0.611l0,0C386.741,399.74,386.741,400.352,386.741,400.352z M389.801,357.512v79.56
	H223.949v-79.56H389.801z M320.033,400.352C320.033,399.74,320.645,399.74,320.033,400.352L320.033,400.352
	C320.645,399.74,320.033,399.74,320.033,400.352z"/>
</svg>
